<?xml version="1.0" standalone="no"?>
<!DOCTYPE svg PUBLIC "-//W3C//DTD SVG 20010904//EN"
 "http://www.w3.org/TR/2001/REC-SVG-20010904/DTD/svg10.dtd">
<svg version="1.0" xmlns="http://www.w3.org/2000/svg"
 width="151.000000pt" height="108.000000pt" viewBox="0 0 151.000000 108.000000"
 preserveAspectRatio="xMidYMid meet">

<g transform="translate(0.000000,108.000000) scale(0.100000,-0.100000)"
fill="#000000" stroke="none">
<path d="M261 997 c-13 -17 -6 -60 14 -77 16 -13 71 5 79 26 7 19 -10 54 -27
54 -7 0 -21 3 -33 6 -12 3 -26 -1 -33 -9z m19 -12 c-7 -9 -15 -13 -17 -11 -7
7 7 26 19 26 6 0 6 -6 -2 -15z"/>
<path d="M355 895 c-14 -13 -25 -32 -26 -42 -2 -36 3 -69 16 -94 16 -31 90
-99 108 -99 28 0 115 49 140 79 37 44 37 102 1 138 -22 22 -32 25 -67 20 -28
-4 -48 -1 -61 9 -31 22 -83 18 -111 -11z m34 -18 c-8 -7 -19 -21 -23 -32 -5
-12 -10 -15 -13 -8 -7 19 16 53 35 53 15 -1 15 -2 1 -13z"/>
<path d="M180 900 c-8 -5 -27 -10 -42 -10 -52 0 -63 -72 -16 -102 46 -29 69
-29 99 2 36 36 39 82 7 104 -26 19 -28 19 -48 6z m-54 -46 c-3 -9 -6 -18 -6
-20 0 -3 -4 -3 -10 1 -11 7 -2 35 12 35 6 0 7 -7 4 -16z"/>
<path d="M847 838 c-54 -73 -157 -234 -157 -245 0 -36 36 -4 88 76 43 68 62
90 80 90 12 1 22 -1 22 -2 0 -2 -13 -28 -30 -58 -16 -30 -30 -68 -30 -86 l0
-32 63 1 c36 1 71 7 84 16 20 13 23 12 29 -2 9 -24 47 -19 74 9 27 28 20 47
-8 22 -30 -27 -42 -21 -32 14 5 17 16 42 25 55 21 33 20 34 -30 34 -36 0 -51
-6 -81 -32 -20 -17 -40 -42 -45 -55 -9 -24 -35 -40 -46 -30 -8 8 13 57 48 112
24 37 34 45 59 45 33 0 41 19 11 27 -13 3 -17 11 -13 25 4 18 2 19 -15 9 -12
-6 -23 -17 -27 -26 -3 -8 -17 -15 -32 -15 l-26 0 21 34 c25 40 26 46 7 46 -8
0 -26 -15 -39 -32z m173 -136 c0 -11 -81 -92 -92 -92 -5 0 -2 13 7 29 21 43
85 89 85 63z"/>
<path d="M230 736 c-32 -32 21 -88 65 -68 28 13 41 47 25 66 -12 16 -75 17
-90 2z m20 -15 c0 -6 -4 -13 -10 -16 -5 -3 -10 1 -10 9 0 9 5 16 10 16 6 0 10
-4 10 -9z"/>
<path d="M280 620 c-8 -5 -27 -10 -43 -10 -41 0 -58 -41 -30 -77 11 -15 34
-33 52 -40 30 -13 34 -12 62 16 39 40 41 97 3 111 -30 12 -26 12 -44 0z m-50
-37 c0 -5 -5 -15 -10 -23 -8 -12 -10 -11 -10 8 0 12 5 22 10 22 6 0 10 -3 10
-7z"/>
<path d="M397 614 c-13 -13 -7 -51 11 -74 18 -22 19 -22 50 -6 23 12 32 24 32
41 0 13 -3 26 -8 29 -15 9 -78 17 -85 10z m23 -18 c0 -3 -4 -8 -10 -11 -5 -3
-10 -1 -10 4 0 6 5 11 10 11 6 0 10 -2 10 -4z"/>
<path d="M480 364 c-19 -8 -42 -22 -52 -31 -23 -21 -24 -69 -1 -77 15 -6 13
-11 -13 -31 -41 -32 -60 -76 -45 -104 27 -50 120 -33 188 35 25 25 47 44 49
41 2 -2 -3 -18 -12 -35 -18 -37 -15 -65 7 -70 36 -7 161 141 143 170 -11 18
-34 7 -34 -16 0 -23 -87 -132 -97 -122 -2 2 7 27 21 55 14 28 26 55 26 61 0
17 -26 11 -45 -10 -11 -12 -22 -17 -28 -11 -5 5 -26 -9 -52 -35 -41 -41 -96
-66 -122 -56 -39 14 29 97 93 114 30 9 44 17 44 29 0 15 -7 17 -55 12 -58 -6
-68 2 -37 30 29 26 72 39 89 26 17 -15 67 5 61 24 -7 18 -88 19 -128 1z"/>
<path d="M1122 330 c-7 -11 -21 -20 -31 -20 -31 0 -51 -11 -51 -27 0 -10 7
-14 20 -10 11 3 20 2 19 -1 -1 -17 -76 -136 -91 -146 -31 -19 -30 2 2 59 38
66 31 86 -19 61 -26 -14 -30 -14 -25 -1 4 8 1 15 -4 15 -15 0 -40 -27 -57 -60
-20 -39 -72 -80 -101 -80 -34 0 -30 25 6 40 35 14 39 30 9 30 -18 0 -19 2 -9
15 7 9 20 13 29 10 23 -7 45 10 38 30 -13 32 -99 -14 -105 -56 -2 -13 -11 -32
-20 -42 -12 -14 -14 -22 -5 -35 8 -13 23 -16 69 -14 58 2 60 3 109 57 28 31
53 55 58 55 4 0 -2 -17 -13 -37 -24 -45 -25 -57 -5 -73 12 -10 21 -10 41 -2
18 9 29 9 44 0 14 -9 25 -9 43 -1 16 8 28 8 34 2 29 -29 143 65 143 117 0 30
-31 47 -63 35 -22 -8 -36 -23 -102 -106 -13 -16 -26 -27 -30 -23 -11 11 1 47
35 106 26 44 35 52 60 52 35 0 50 19 21 27 -16 4 -20 11 -16 24 8 26 -17 25
-33 -1z m95 -117 c5 -15 -73 -96 -86 -89 -15 9 -3 36 33 74 30 32 46 36 53 15z"/>
<path d="M1360 263 c-106 -38 -129 -91 -49 -108 16 -4 29 -10 29 -15 0 -13
-52 -22 -63 -11 -18 18 -29 12 -25 -11 6 -41 95 -31 119 14 14 25 5 35 -42 50
l-41 12 24 18 c16 12 33 16 55 12 25 -5 34 -2 39 11 4 10 1 21 -7 26 -16 10
-18 10 -39 2z"/>
</g>
</svg>
